<svg t="1612159666307" class="icon" viewBox="0 0 1024 1024" version="1.1" xmlns="http://www.w3.org/2000/svg" p-id="2549" width="200" height="200"><path d="M358.227 0H111.089C49.839 0 0 49.83 0 111.089v247.118c0 61.249 49.83 111.088 111.089 111.088h247.138c61.249 0 111.088-49.83 111.088-111.088V111.069C469.325 49.829 419.495 0 358.227 0z m37.03 358.197c0 20.41-16.62 37.03-37.03 37.03H111.089c-20.41 0-37.03-16.62-37.03-37.03V111.069c0-20.41 16.62-37.03 37.03-37.03h247.138c20.41 0 37.03 16.62 37.03 37.03v247.128z m-37.03 196.498H111.089C49.839 554.695 0 604.525 0 665.783v247.128c0 61.24 49.83 111.079 111.089 111.079h247.138c61.249 0 111.088-49.83 111.088-111.089V665.783c0.01-61.239-49.82-111.088-111.088-111.088z m37.03 358.206c0 20.42-16.62 37.03-37.03 37.03H111.089c-20.41 0-37.03-16.61-37.03-37.03V665.783c0-20.41 16.62-37.02 37.03-37.02h247.138c20.41 0 37.03 16.61 37.03 37.02v247.118zM912.9 0H665.763c-61.249 0-111.088 49.83-111.088 111.089v247.118c0 61.249 49.83 111.088 111.088 111.088h247.138c61.25 0 111.089-49.83 111.089-111.088V111.069C1023.99 49.829 974.16 0 912.901 0z m37.03 358.197c0 20.41-16.62 37.03-37.03 37.03H665.763c-20.41 0-37.02-16.62-37.02-37.03V111.069c0-20.41 16.61-37.03 37.02-37.03h247.138c20.41 0 37.03 16.62 37.03 37.03v247.128zM912.9 554.695H665.763c-61.249 0-111.088 49.83-111.088 111.088v247.128c0 61.25 49.83 111.089 111.088 111.089h247.138c61.25 0 111.089-49.83 111.089-111.089V665.783c0-61.239-49.83-111.088-111.089-111.088z m37.03 358.206c0 20.42-16.62 37.03-37.03 37.03H665.763c-20.41 0-37.02-16.61-37.02-37.03V665.783c0-20.41 16.61-37.02 37.02-37.02h247.138c20.41 0 37.03 16.61 37.03 37.02v247.118z m0 0" p-id="2550" fill="#1D7EE1"></path></svg>