<svg t="1612236722972" class="icon" viewBox="0 0 1024 1024" version="1.1" xmlns="http://www.w3.org/2000/svg" p-id="11796" width="200" height="200"><path d="M390.597 325.783c39.334-39.274 42.616-101.497 6.566-144.023L285.727 40.99c-36.08-47.465-104.9-54.03-150.799-18.01-3.252 3.283-6.535 3.283-6.535 6.535L30.059 127.73c-93.425 93.304 39.333 345.39 281.9 587.655 240.882 240.61 488.328 369.905 583.38 279.884l96.677-96.557c42.647-42.557 42.647-111.315 0-150.589l-6.535-6.565-140.95-111.315c-42.587-35.99-104.87-32.738-144.204 6.566L639.7 697.344a952.862 952.862 0 0 1-173.719-132.578c-50.808-50.718-93.425-108.032-132.758-173.478l57.374-65.505z" p-id="11797" fill="#ffffff"></path></svg>