<svg t="1611052873407" class="icon" viewBox="0 0 1024 1024" version="1.1" xmlns="http://www.w3.org/2000/svg" p-id="3315" width="200" height="200"><path d="M903.873 0H120.127A120.127 120.127 0 0 0 0 120.127v783.746A120.127 120.127 0 0 0 120.127 1024h783.746A120.127 120.127 0 0 0 1024 903.873V120.127A120.127 120.127 0 0 0 903.873 0zM198.126 822.954a61.732 61.732 0 1 1 61.732-61.732 61.732 61.732 0 0 1-61.732 61.732z m0-250.265a61.732 61.732 0 1 1 61.732-61.732 61.732 61.732 0 0 1-61.732 62.566z m0-250.265a61.732 61.732 0 1 1 61.732-60.063 61.732 61.732 0 0 1-61.732 61.732z m654.026 467.578H365.387a35.454 35.454 0 1 1 0-70.49h486.765a35.454 35.454 0 1 1 0 70.49z m0-250.264H365.387a35.454 35.454 0 0 1 0-70.492h486.765a35.454 35.454 0 1 1 0 70.492z m0-250.265H365.387a35.454 35.454 0 1 1 0-70.491h486.765a35.454 35.454 0 1 1 0 70.49z" p-id="3316" fill="#b4bbc5"></path></svg>