<svg t="1611055117105" class="icon" viewBox="0 0 1048 1024" version="1.1" xmlns="http://www.w3.org/2000/svg" p-id="49833" width="200" height="200"><path d="M980.984295 457.15515H873.009059v-25.708389a57.129754 57.129754 0 1 0-109.689128 0V457.15515H73.192499a57.129754 57.129754 0 0 0 0 107.975236h695.840408v23.423199a57.129754 57.129754 0 1 0 109.689128 0v-23.423199H987.268568a53.701969 53.701969 0 0 0 57.129754-57.129754 66.841813 66.841813 0 0 0-62.84273-57.129755z m0 376.485081H321.70693v-23.423199a53.701969 53.701969 0 0 0-57.129754-57.129755 53.701969 53.701969 0 0 0-57.129754 57.129755v23.423199H73.192499a57.129754 57.129754 0 1 0 0 109.689128h146.823469v23.423199a53.701969 53.701969 0 0 0 57.129754 57.129755 53.701969 53.701969 0 0 0 57.129754-57.129755v-23.423199H987.268568a53.701969 53.701969 0 0 0 57.129754-57.129754 66.841813 66.841813 0 0 0-62.84273-57.129754zM73.192499 188.645305h146.823469v23.423199a53.701969 53.701969 0 0 0 57.129754 57.129755 53.701969 53.701969 0 0 0 57.129754-57.129755V188.645305H987.268568a53.701969 53.701969 0 0 0 57.129754-57.129754 53.701969 53.701969 0 0 0-57.129754-57.129754H321.70693V57.24687a53.701969 53.701969 0 0 0-57.129754-57.129754c-31.421365 0-46.846399 23.423199-46.846398 57.129754v23.4232H73.192499a53.701969 53.701969 0 0 0-57.129754 57.129754 53.701969 53.701969 0 0 0 57.129754 57.129754z" fill="#ffffff" p-id="49834"></path></svg>