<svg t="1622613732411" class="icon" viewBox="0 0 1024 1024" version="1.1" xmlns="http://www.w3.org/2000/svg" p-id="2356" width="200" height="200"><path d="M867.700364 267.822545a93.090909 93.090909 0 0 1 0 131.630546l-361.378909 361.378909a93.090909 93.090909 0 0 1-60.043637 27.089455l-122.833454 7.633454a46.545455 46.545455 0 0 1-49.338182-43.613091l-0.046546-2.839273 7.68-125.672727a93.090909 93.090909 0 0 1 27.089455-60.043636l361.378909-361.425455a93.090909 93.090909 0 0 1 131.630545 0l65.861819 65.861818z m-49.384728 49.338182L752.500364 251.345455a23.272727 23.272727 0 0 0-29.696-2.699637l-3.258182 2.699637-361.332364 361.378909a23.272727 23.272727 0 0 0-6.144 10.845091l-0.651636 4.18909-5.957818 96.442182 96.442181-5.957818a23.272727 23.272727 0 0 0 11.776-4.049454l3.258182-2.699637 361.378909-361.425454a23.272727 23.272727 0 0 0 2.699637-29.649455l-2.699637-3.258182z" fill="#5488F9" p-id="2357"></path><path d="M579.025455 349.090909l49.338181-49.338182 142.429091 142.429091-49.338182 49.338182z" fill="#5488F9" p-id="2358"></path><path d="M488.727273 151.272727v69.818182H186.181818a58.181818 58.181818 0 0 0-57.902545 52.224L128 279.272727v558.545455c0 30.114909 22.900364 54.923636 52.224 57.902545L186.181818 896h605.090909a58.181818 58.181818 0 0 0 57.902546-52.224L849.454545 837.818182v-279.272727h69.818182v279.272727a128 128 0 0 1-120.180363 127.767273L791.272727 965.818182H186.181818a128 128 0 0 1-127.767273-120.180364L58.181818 837.818182V279.272727a128 128 0 0 1 120.180364-127.767272L186.181818 151.272727h302.545455z" fill="#5488F9" p-id="2359"></path></svg>