<svg t="1611282992500" class="icon" viewBox="0 0 1109 1024" version="1.1" xmlns="http://www.w3.org/2000/svg" p-id="8757" width="200" height="200"><path d="M0 180.907v-26.198C11.605 133.803 30.464 127.488 54.87 128c70.997 1.536 142.506 0.512 213.418 0.512 9.387 0 19.456-0.512 29.952-1.024V95.573c1.11-58.197 36.608-92.757 98.133-95.317 13.91-0.512 27.734 0 41.558 0 88.746 0 177.493-0.512 266.154 0 69.803 0.512 105.302 32.939 108.63 98.987l1.706 29.269c82.603 0 162.987 0.512 242.774-0.512 23.893-0.512 41.045 6.827 52.138 26.71v26.197c-15.53 20.48-38.229 24.576-63.146 23.552-32.171-1.024-63.83 0-98.731 0v663.04c0 61.696-23.296 110.421-83.712 139.178-16.64 7.936-36.01 11.52-54.357 17.323H299.349c-111.957-34.048-137.386-68.096-137.386-182.784V204.459c-37.206 0-71.083-1.024-104.875 0.512-23.808 0.512-43.264-4.694-57.088-24.064z m378.027-54.443h353.28c0-11.093-0.598-19.968 0-28.33 1.024-15.702-6.742-21.931-22.784-21.931-102.571 0.512-204.544 0-307.2 0-16.555 0-23.808 7.253-23.211 21.93v28.331z m404.821 469.163c0-64.854 0-130.39-0.512-196.352 0-31.915-11.947-48.64-35.584-49.238-23.04-0.512-37.547 17.323-37.547 48.214-0.597 129.877 0 259.157 0 389.12 0.427 30.805 14.934 49.152 37.547 48.64 23.04-0.512 36.096-18.347 36.096-49.75V595.627z m-378.368-2.56c-0.512 0-0.512 0 0 0-0.512-67.072 0-134.656 0-201.643-0.512-25.173-16.128-40.875-36.693-40.875-21.76 0.512-35.328 15.702-36.864 41.387V782.08c0 6.827-1.024 14.165 0.512 20.907 4.01 20.48 16.128 33.536 36.266 33.024 19.627-0.512 32.768-12.544 35.84-33.536 1.451-8.363 0.939-17.238 0.939-26.198v-183.21z m190.635 1.024V394.58c0-27.818-13.483-44.032-36.267-44.544-23.21-0.512-37.717 16.726-37.717 45.568v395.35c0 27.733 13.994 44.544 36.181 45.056 22.784 0.512 37.803-16.726 37.803-45.568V594.09z" p-id="8758" fill="#D9001B"></path></svg>