<svg t="1611802112028" class="icon" viewBox="0 0 1024 1024" version="1.1" xmlns="http://www.w3.org/2000/svg" p-id="2366" width="200" height="200"><path d="M793.6 1024H230.4c-76.8 0-136.533333-59.733333-136.533333-136.533333V136.533333C93.866667 59.733333 153.6 0 230.4 0h375.466667c12.8 0 21.333333 4.266667 29.866666 12.8l281.6 281.6c8.533333 8.533333 12.8 17.066667 12.8 29.866667v563.2c0 76.8-59.733333 136.533333-136.533333 136.533333zM230.4 85.333333c-29.866667 0-51.2 21.333333-51.2 51.2v750.933334c0 29.866667 21.333333 51.2 51.2 51.2h563.2c29.866667 0 51.2-21.333333 51.2-51.2V341.333333l-256-256H230.4z" fill="#ffffff" p-id="2367"></path><path d="M887.466667 366.933333h-281.6c-25.6 0-42.666667-17.066667-42.666667-42.666666V42.666667c0-25.6 17.066667-42.666667 42.666667-42.666667s42.666667 17.066667 42.666666 42.666667v238.933333h238.933334c25.6 0 42.666667 17.066667 42.666666 42.666667s-17.066667 42.666667-42.666666 42.666666zM699.733333 601.6H324.266667c-25.6 0-42.666667-17.066667-42.666667-42.666667s17.066667-42.666667 42.666667-42.666666h375.466666c25.6 0 42.666667 17.066667 42.666667 42.666666s-17.066667 42.666667-42.666667 42.666667zM699.733333 789.333333H324.266667c-25.6 0-42.666667-17.066667-42.666667-42.666666s17.066667-42.666667 42.666667-42.666667h375.466666c25.6 0 42.666667 17.066667 42.666667 42.666667s-17.066667 42.666667-42.666667 42.666666zM418.133333 413.866667H324.266667c-25.6 0-42.666667-17.066667-42.666667-42.666667s17.066667-42.666667 42.666667-42.666667h93.866666c25.6 0 42.666667 17.066667 42.666667 42.666667s-17.066667 42.666667-42.666667 42.666667z" fill="#ffffff" p-id="2368"></path></svg>