<svg t="1612177887880" class="icon" viewBox="0 0 1024 1024" version="1.1" xmlns="http://www.w3.org/2000/svg" p-id="7215" width="200" height="200"><path d="M511.408105 0.010924a497.444509 497.444509 0 0 1 199.773335 40.488979 514.008182 514.008182 0 0 1 272.261668 271.727356 493.170013 493.170013 0 0 1 40.488979 199.179655 497.444509 497.444509 0 0 1-40.488979 199.773334 512.523982 512.523982 0 0 1-272.261668 272.261669 497.503877 497.503877 0 0 1-199.773335 40.548347 494.238637 494.238637 0 0 1-199.179655-40.548347 514.008182 514.008182 0 0 1-271.727356-272.261669A497.444509 497.444509 0 0 1 0.012115 511.406914a493.170013 493.170013 0 0 1 40.488979-199.179655 515.433014 515.433014 0 0 1 271.90546-271.727356A493.170013 493.170013 0 0 1 511.408105 0.010924z m254.570003 581.034659a111.077536 111.077536 0 0 0 61.623988-17.810402 59.011796 59.011796 0 0 0 27.428018-53.074995 55.271612 55.271612 0 0 0-27.249914-50.937748 116.895601 116.895601 0 0 0-61.623988-16.563673h-504.628038a122.951137 122.951137 0 0 0-62.75198 16.563673 54.796668 54.796668 0 0 0-28.496642 50.819012 58.418116 58.418116 0 0 0 28.496642 53.074995 116.776865 116.776865 0 0 0 62.811348 17.810402z" p-id="7216" fill="#ffffff"></path></svg>