<svg t="1611053679332" class="icon" viewBox="0 0 1024 1024" version="1.1" xmlns="http://www.w3.org/2000/svg" p-id="32497" width="200" height="200"><path d="M512 41.306c-260.978 0-470.694 209.718-470.694 470.695 0 260.979 209.717 470.693 470.694 470.693 260.978 0 470.695-209.715 470.695-470.693C982.694 251.023 772.978 41.306 512 41.306z m0 899.447c-237.678 0-428.75-191.075-428.75-428.752 0-237.678 191.073-428.75 428.75-428.75 237.678 0 428.75 191.072 428.75 428.75C940.749 749.68 749.678 940.753 512 940.753z" fill="#ffffff" p-id="32498"></path><path d="M512.06 56.951c-247.423 0-447.999 200.574-447.999 448 0 247.424 200.576 448 447.999 448 247.427 0 448-200.576 448-448 0.001-247.426-200.575-448-448-448zM404.468 702.738V321.264l318.761 190.737-318.761 190.737z" fill="#ffffff" p-id="32499"></path></svg>