<svg t="1612177102921" class="icon" viewBox="0 0 1026 1024" version="1.1" xmlns="http://www.w3.org/2000/svg" p-id="4195" width="200" height="200"><path d="M615.482166 487.313078c0.338177-13.188904-3.719947-26.377807-13.188903-36.184941L261.749009 89.955086c-17.923382-18.937913-47.006605-18.937913-64.929987 0-17.923382 18.937913-17.923382 49.712021 0 68.649934l309.770146 328.708058-309.770146 328.708058c-17.923382 18.937913-17.923382 49.712021 0 68.649934 17.923382 18.937913 47.006605 18.937913 64.929987 0l340.544254-361.173052c9.468956-9.807133 13.527081-22.996037 13.188903-36.18494z" p-id="4196" fill="#25A1D8"></path><path d="M890.420079 451.128137L549.875826 89.955086c-17.923382-18.937913-47.006605-18.937913-64.929987 0-17.923382 18.937913-17.923382 49.712021 0 68.649934l309.770145 328.708058-309.770145 328.708058c-17.923382 18.937913-17.923382 49.712021 0 68.649934 17.923382 18.937913 47.006605 18.937913 64.929987 0l340.544253-361.173052c9.468956-9.807133 13.865258-22.996037 13.188904-36.18494 0.338177-13.188904-4.058124-26.377807-13.188904-36.184941z" p-id="4197" fill="#25A1D8"></path></svg>