<svg t="1611211203986" class="icon" viewBox="0 0 1024 1024" version="1.1" xmlns="http://www.w3.org/2000/svg" p-id="10431" width="200" height="200"><path d="M796.444444 0a227.555556 227.555556 0 0 1 227.555556 227.555556v568.888888a227.555556 227.555556 0 0 1-227.555556 227.555556H227.555556a227.555556 227.555556 0 0 1-227.555556-227.555556V227.555556a227.555556 227.555556 0 0 1 227.555556-227.555556h568.888888z m0 85.333333H227.555556a142.222222 142.222222 0 0 0-142.222223 142.222223v568.888888a142.222222 142.222222 0 0 0 142.222223 142.222223h568.888888a142.222222 142.222222 0 0 0 142.222223-142.222223V227.555556a142.222222 142.222222 0 0 0-142.222223-142.222223z m-228.892444 129.820445c12.316444-40.561778 69.859556-40.277333 81.749333 0.426666l105.614223 360.675556H853.333333a42.666667 42.666667 0 0 1 0 85.333333h-130.389333a42.666667 42.666667 0 0 1-40.96-30.72l-74.353778-254.008889-113.891555 375.096889c-11.434667 37.717333-63.573333 41.045333-79.729778 5.12l-86.670222-192.824889-38.997334 74.439112a42.666667 42.666667 0 0 1-37.802666 22.869333H170.666667a42.666667 42.666667 0 1 1 0-85.333333h54.044444l67.754667-129.308445c16.497778-31.516444 62.122667-30.151111 76.714666 2.304l75.975112 169.016889z" p-id="10432" fill="#ffffff"></path></svg>