<svg t="1611308525043" class="icon" viewBox="0 0 1024 1024" version="1.1" xmlns="http://www.w3.org/2000/svg" p-id="3120" width="200" height="200"><path d="M512 0c-282.7008 0-512 229.2992-512 512 0 282.7264 229.2992 512 512 512 282.7264 0 512-229.2736 512-512 0-282.7008-229.2736-512-512-512z m-3.3024 870.272c-41.6512 0-75.5712-33.1776-75.5712-74.0352s33.792-74.0352 75.5712-74.0352c41.6768 0 75.5712 33.1776 75.5712 74.0352s-33.7664 74.0352-75.5712 74.0352z m202.9312-418.8928c-14.8224 23.296-46.2592 54.9632-94.5152 95.0784-24.96 20.736-40.4736 37.4528-46.464 50.1504-6.016 12.5952-8.832 35.2-8.2432 67.7888h-107.5712c-0.2304-15.4368-0.4864-24.832-0.4864-28.2624 0-34.8416 5.7856-63.4624 17.3056-85.9136 11.5456-22.4768 34.6112-47.7952 69.0944-75.8016 34.4832-28.1344 55.1936-46.4896 61.9008-55.1936a74.0096 74.0096 0 0 0 15.6416-45.4144c0-22.9632-9.2928-42.624-27.648-59.0848-18.3552-16.3584-43.3152-24.6016-74.496-24.6016-30.1312 0-55.3216 8.576-75.5712 25.6512-20.2496 17.0752-37.6576 54.7328-41.7792 78.0288-3.8912 22.016-109.9264 31.3088-108.6464-13.312 1.28-44.5952 24.4736-92.9792 64.256-128.0512 39.7824-35.072 92.032-52.608 156.672-52.608 68.0448 0 122.0608 17.7664 162.304 53.3248s60.2624 76.8512 60.2624 124.0576c0.1024 26.1376-7.3216 50.8672-22.016 74.1632z" p-id="3121" fill="#F59A23"></path></svg>