<svg t="1612321136768" class="icon" viewBox="0 0 1024 1024" version="1.1" xmlns="http://www.w3.org/2000/svg" p-id="2992" width="200" height="200"><path d="M128.19 352.66v511.05h766.29V352.66H128.19z m0-63.85h766.29c35.27 0 63.86 28.59 63.86 63.85v511.05c0 35.27-28.59 63.86-63.86 63.86H128.19c-35.27 0-63.86-28.59-63.86-63.86V352.66c0-16.94 6.73-33.18 18.7-45.15a63.892 63.892 0 0 1 45.16-18.7z m0 0" fill="#ffffff" p-id="2993"></path><path d="M96.26 480.57h319.29c17.63 0 31.93 14.29 31.93 31.93s-14.29 31.93-31.93 31.93H96.26c-17.63 0-31.93-14.29-31.93-31.93s14.3-31.93 31.93-31.93z m510.86 0H926.4c17.64 0 31.93 14.29 31.93 31.93s-14.29 31.93-31.93 31.93H607.12c-17.63 0-31.93-14.29-31.93-31.93s14.3-31.93 31.93-31.93z m-223.5-319.28V289h255.43V161.29H383.62z m0-63.86h255.43c35.26 0 63.85 28.59 63.85 63.86V289c0 35.26-28.59 63.85-63.85 63.85H383.62a63.81 63.81 0 0 1-45.15-18.7A63.854 63.854 0 0 1 319.76 289V161.29a63.86 63.86 0 0 1 18.71-45.16 63.81 63.81 0 0 1 45.15-18.7z m0 0" fill="#ffffff" p-id="2994"></path><path d="M479.4 480.57v63.86h63.86v-63.86H479.4z m0-63.86h63.86c35.27 0 63.86 28.59 63.86 63.86v63.86c0 35.26-28.59 63.86-63.86 63.86H479.4a63.82 63.82 0 0 1-45.15-18.71 63.844 63.844 0 0 1-18.7-45.15v-63.86c0-16.94 6.73-33.18 18.7-45.15a63.854 63.854 0 0 1 45.15-18.71z m0 0" fill="#ffffff" p-id="2995"></path></svg>