<svg t="1612150187048" class="icon" viewBox="0 0 1024 1024" version="1.1" xmlns="http://www.w3.org/2000/svg" p-id="2493" width="200" height="200"><path d="M260.408889 28.444444v976H181.262222a63.004444 63.004444 0 0 1-62.933333-62.791111V91.235556A63.004444 63.004444 0 0 1 181.262222 28.444444zM820.693333 598.755556a46.293333 46.293333 0 0 0 36.906667 45.368888c1.28 0 2.417778 0.568889 3.697778 0.64a62.72 62.72 0 0 1 54.4 62.08v234.666667a63.004444 63.004444 0 0 1-62.933334 62.791111H316.444444V28.444444h536.391112a63.004444 63.004444 0 0 1 62.933333 62.791112v234.666666a62.72 62.72 0 0 1-54.4 62.08c-1.28 0-2.417778 0.426667-3.697778 0.64a46.364444 46.364444 0 0 0-36.977778 45.155556z" p-id="2494" fill="#ffffff"></path></svg>