<svg t="1611802033676" class="icon" viewBox="0 0 1078 1024" version="1.1" xmlns="http://www.w3.org/2000/svg" p-id="1140" width="200" height="200"><path d="M188.610009 545.415051a243.760917 243.760917 0 0 0-64.291941 230.354066c0 2.437609 0 4.875218 1.828206 7.008127a163.929216 163.929216 0 0 1-45.40047 145.951849A163.319814 163.319814 0 0 1 0 972.910759a457.051719 457.051719 0 0 0 533.227005-82.878712A243.760917 243.760917 0 0 0 188.610009 545.415051zM1068.586919 9.750437a36.259436 36.259436 0 0 0-45.705172-3.047012L532.617603 379.352927a25.899597 25.899597 0 0 0-2.437609 39.91585L659.37328 548.462063a25.899597 25.899597 0 0 0 41.439356-2.742311L1071.938631 55.76031a36.259436 36.259436 0 0 0-3.351712-46.009873z" p-id="1141" fill="#ffffff"></path></svg>