<svg t="1612320782730" class="icon" viewBox="0 0 1024 1024" version="1.1" xmlns="http://www.w3.org/2000/svg" p-id="2152" width="200" height="200"><path d="M1024 765.44L719.36 481.28 1024 286.72V765.44z m-512-212.48l-7.68-5.12L7.68 227.84c7.68-10.24 20.48-17.92 35.84-17.92h939.52c15.36 0 28.16 7.68 35.84 17.92L519.68 545.28l-7.68 7.68z m-207.36-71.68L0 765.44V286.72l304.64 194.56z m207.36 125.44l163.84-97.28 345.6 332.8c-7.68 15.36-23.04 25.6-38.4 25.6H43.52c-17.92 0-33.28-10.24-38.4-25.6L353.28 512l158.72 94.72z" p-id="2153" fill="#ffffff"></path></svg>