<svg t="1612235528126" class="icon" viewBox="0 0 1024 1024" version="1.1" xmlns="http://www.w3.org/2000/svg" p-id="9233" width="200" height="200"><path d="M682.688 139.392h-512A145.088 145.088 0 0 0 25.6 284.416v568.96A145.088 145.088 0 0 0 170.688 998.4h512a145.088 145.088 0 0 0 145.024-145.088V284.416a145.088 145.088 0 0 0-145.024-145.024z m-512 62.592h512c45.568 0 82.496 36.928 82.496 82.432v568.96c0 45.504-36.928 82.432-82.56 82.432h-512a82.496 82.496 0 0 1-82.432-82.496V284.416c0-45.504 36.928-82.432 82.496-82.432z" p-id="9234" fill="#ffffff"></path><path d="M341.312 25.6l-9.6 0.32A145.216 145.216 0 0 0 206.08 118.144l-3.072 8.576h-32.384A145.088 145.088 0 0 0 25.6 271.808v581.504A145.088 145.088 0 0 0 170.688 998.4h512l9.6-0.32a145.216 145.216 0 0 0 125.632-92.224l3.008-8.576h32.448a145.088 145.088 0 0 0 145.024-145.088V170.688A145.088 145.088 0 0 0 853.312 25.6h-512z m0 62.592h512c45.568 0 82.56 36.928 82.56 82.496v581.504c0 45.568-36.992 82.496-82.56 82.496h-85.568l-3.072 27.904a82.56 82.56 0 0 1-81.984 73.216h-512a82.496 82.496 0 0 1-82.56-82.496V271.808c0-45.568 36.992-82.496 82.56-82.496h85.568l3.072-27.904a82.56 82.56 0 0 1 81.984-73.216z" p-id="9235" fill="#ffffff"></path><path d="M284.416 524.8h284.416v64H284.416zM284.416 408.896V346.24H568.96v62.592zM284.416 760.896v-62.592H568.96v62.592z" p-id="9236" fill="#ffffff"></path></svg>