<svg t="1611134380055" class="icon" viewBox="0 0 1024 1024" version="1.1" xmlns="http://www.w3.org/2000/svg" p-id="3533" width="200" height="200"><path d="M863.232 161.792c-93.696-93.696-218.624-144.896-351.744-144.896-132.608 0-257.536 51.712-351.744 144.896-93.696 93.696-145.92 217.6-145.92 350.208s51.712 256.512 145.92 350.208c93.696 93.696 218.624 144.896 351.744 144.896s257.536-51.712 351.744-144.896c94.208-93.696 145.92-218.112 145.92-350.208 0-132.608-51.712-257.024-145.92-350.208M263.168 547.328c-19.456 0-35.328-15.872-35.328-35.328 0-19.456 15.872-35.328 35.328-35.328h497.664c19.456 0 35.328 15.872 35.328 35.328 0 19.456-15.872 35.328-35.84 35.328H263.168z" p-id="3534" fill="#409EFF"></path></svg>