<svg t="1612265313546" class="icon" viewBox="0 0 1024 1024" version="1.1" xmlns="http://www.w3.org/2000/svg" p-id="20261" width="200" height="200"><path d="M960 768a32 32 0 0 1-32-32V512a32 32 0 0 0-32-32H576a32 32 0 0 1-32-32V339.882667c0-17.749333 14.336-32 32-32h58.197333a32 32 0 0 0 32-32V32A32 32 0 0 0 634.197333 0H389.717333a32 32 0 0 0-32 32v243.882667c0 17.664 14.336 32 32 32h58.282667c17.664 0 32 14.336 32 32V448a32 32 0 0 1-32 32H128A32 32 0 0 0 96 512v223.402667A32 32 0 0 1 64 768H32A32 32 0 0 0 0 800v192c0 17.664 14.336 32 32 32h192A32 32 0 0 0 256 992v-192A32 32 0 0 0 224 768H192a32 32 0 0 1-32-32V576c0-17.664 14.336-32 32-32h256c17.664 0 32 14.336 32 32v159.402667A32 32 0 0 1 448 768h-32.597333a32 32 0 0 0-32 32v192c0 17.664 14.336 32 32 32h192a32 32 0 0 0 32-32v-192A32 32 0 0 0 607.402667 768H576a32 32 0 0 1-32-32V576c0-17.664 14.336-32 32-32h256c17.664 0 32 14.336 32 32v159.402667a32 32 0 0 1-32 32h-32A32 32 0 0 0 768 799.402667v192c0 17.664 14.336 32 32 32h192a32 32 0 0 0 32-32v-192a32 32 0 0 0-32-32L960 768z" fill="#ffffff" fill-opacity=".58" p-id="20262"></path></svg>