<svg t="1611055766079" class="icon" viewBox="0 0 1024 1024" version="1.1" xmlns="http://www.w3.org/2000/svg" p-id="55455" width="20" height="20"><path d="M832 419.2c0-3.2 0-3.2 0 0 0-144-115.2-256-256-256-99.2 0-185.6 57.6-227.2 140.8-19.2-12.8-41.6-16-64-16-89.6 0-160 70.4-160 160 0 12.8 3.2 28.8 6.4 41.6-76.8 25.6-131.2 96-131.2 182.4 0 105.6 86.4 192 192 192h320l-256-256h128v-192h256v192h128l-256 256h320v-3.2c108.8-16 192-108.8 192-220.8 0-115.2-83.2-208-192-220.8z" p-id="55456" fill="#ffffff"></path></svg>