<svg t="1611054164939" class="icon" viewBox="0 0 1024 1024" version="1.1" xmlns="http://www.w3.org/2000/svg" p-id="35187" width="20" height="20"><path d="M960 938.666667H64c-36.266667 0-64-27.733333-64-64V149.333333c0-36.266667 27.733333-64 64-64h315.733333c17.066667 0 34.133333 6.4 44.8 19.2l68.266667 68.266667c12.8 12.8 27.733333 19.2 44.8 19.2H960c36.266667 0 64 27.733333 64 64v618.666667c0 36.266667-27.733333 64-64 64zM539.733333 354.133333c-8.533333-8.533333-19.2-12.8-32-12.8-10.666667 0-23.466667 4.266667-32 12.8l-179.2 192c-25.6 27.733333-6.4 70.4 32 70.4H426.666667v128c0 23.466667 19.2 42.666667 42.666666 42.666667h85.333334c23.466667 0 42.666667-19.2 42.666666-42.666667v-128h89.6c36.266667 0 55.466667-44.8 32-70.4l-179.2-192z" fill="#ffffff" p-id="35188"></path></svg>