<svg t="1612179887969" class="icon" viewBox="0 0 1024 1024" version="1.1" xmlns="http://www.w3.org/2000/svg" p-id="8403" width="200" height="200"><path d="M501.888 267.328c14.08 14.4 13.44 37.12-1.664 50.688L284.16 512l215.872 193.92a34.816 34.816 0 0 1 1.664 50.688 38.592 38.592 0 0 1-52.928 1.6l-245.12-220.16a34.944 34.944 0 0 1 0.128-52.288l245.12-220.16a38.592 38.592 0 0 1 52.928 1.664z m358.976 0c14.08 14.4 13.44 37.12-1.664 50.688L643.2 512l215.872 193.92a34.816 34.816 0 0 1 1.664 50.688 38.592 38.592 0 0 1-52.928 1.6l-245.12-220.16a34.944 34.944 0 0 1 0.128-52.288l245.12-220.16a38.592 38.592 0 0 1 52.928 1.664z" p-id="8404" fill="#169BD5"></path></svg>