<svg t="1611208329823" class="icon" viewBox="0 0 1024 1024" version="1.1" xmlns="http://www.w3.org/2000/svg" p-id="2512" width="30" height="30"><path d="M679.815 510.976V284.928a162.816 162.816 0 0 0-49.28-106.496 163.52 163.52 0 0 0-120.192-49.664c-46.912 0-86.912 16.512-120.128 49.792a163.648 163.648 0 0 0-49.856 120.128v212.288h339.456z m127.36-228.224v0.384c0.256 5.12 0.384 10.24 0.384 15.424 0 1.92-0.128 3.84-0.32 5.632v206.72h21.504c17.664 0 32.704 6.144 45.056 18.624 12.352 12.352 18.624 27.52 18.624 45.12v382.208a60.928 60.928 0 0 1-18.56 45.12 61.632 61.632 0 0 1-45.12 18.56H191.687a60.928 60.928 0 0 1-45.056-18.56 61.632 61.632 0 0 1-18.624-45.184V574.528c0-17.728 6.144-32.768 18.56-45.12a61.632 61.632 0 0 1 45.12-18.56H213V298.432c0-81.792 29.056-151.872 87.232-210.048C358.471 30.08 428.295 1.216 510.215 1.216c81.792 0 151.872 29.056 210.112 87.296 54.4 54.4 83.328 119.04 86.848 194.24z" p-id="2513" fill="#ffffff"></path></svg>