<svg t="1611802162469" class="icon" viewBox="0 0 1030 1024" version="1.1" xmlns="http://www.w3.org/2000/svg" p-id="3171" width="200" height="200"><path d="M926.886476 225.571473a59.816078 59.816078 0 0 0-6.00563-84.319049L775.304368 14.733813a59.736003 59.736003 0 0 0-84.319049 5.765405L597.617787 128.120113l235.981232 204.99218zM541.805463 192.180169L0.738212 815.084141c-2.081952 2.402252 0.720676 110.103222 2.482327 169.839225a40.037535 40.037535 0 0 0 40.037535 38.836409c65.581483 0 191.299343-1.281201 193.381295-3.683453l541.067251-622.743823z m-92.887082 734.768846L360.355353 1024h621.782922a48.445418 48.445418 0 0 0 48.045042-48.045042 48.445418 48.445418 0 0 0-48.045042-48.045042z" fill="#ffffff" p-id="3172"></path></svg>