<svg t="1611210848291" class="icon" viewBox="0 0 1024 1024" version="1.1" xmlns="http://www.w3.org/2000/svg" p-id="7907" width="200" height="200"><path d="M427.690667 504.746667c-19.626667-26.24-52.394667-52.48-78.592-72.106667-85.205333-72.106667-163.84-144.213333-176.938667-353.962667H145.962667C126.336 78.677333 106.666667 59.008 106.666667 39.338667S126.293333 0 145.962667 0h727.253333c19.669333 0 39.338667 19.626667 39.338667 39.338667 0 19.626667-19.669333 39.338667-39.338667 39.338666h-26.197333c-6.528 209.749333-91.733333 275.285333-176.896 353.962667-26.197333 19.626667-52.394667 45.866667-78.634667 72.106667 26.24 26.24 52.437333 52.437333 78.634667 72.106666 85.205333 72.106667 170.368 144.213333 176.896 353.962667h26.197333c19.669333 0 39.338667 19.669333 39.338667 39.338667s-19.669333 39.338667-39.338667 39.338666H145.962667c-19.626667 0-39.296-19.626667-39.296-39.338666 0-19.626667 19.626667-39.338667 39.296-39.338667h26.197333c6.570667-209.749333 91.733333-275.285333 176.938667-353.962667 26.197333-19.669333 58.965333-45.866667 78.592-72.106666z m-176.896 426.069333h32.768L493.226667 721.066667c6.528-6.528 26.197333-6.528 32.768 0l209.664 209.749333h32.725333c-6.528-176.981333-78.592-229.418667-150.656-294.954667-32.768-32.768-72.106667-59.008-104.832-104.874666-39.338667 45.866667-72.106667 72.106667-111.36 104.874666-72.106667 65.536-144.213333 117.973333-150.741333 294.954667z m65.536-648.96h399.658666c32.768-45.866667 58.965333-104.874667 58.965334-203.178667H250.794667c6.570667 98.304 26.24 157.312 65.536 203.178667z" p-id="7908" fill="#ffffff"></path></svg>