<svg t="1611281322089" class="icon" viewBox="0 0 1024 1024" version="1.1" xmlns="http://www.w3.org/2000/svg" p-id="5950" width="200" height="200"><path d="M512 0C230.4 0 0 230.4 0 512s230.4 512 512 512 512-230.4 512-512-230.4-512-512-512z m0 877.696a73.344 73.344 0 0 1-73.152-73.152c0-40.192 32.896-73.088 73.152-73.088s73.152 32.896 73.152 73.088c0 40.256-32.896 73.152-73.152 73.152zM585.152 512c0 40.256-32.896 73.152-73.152 73.152A73.344 73.344 0 0 1 438.848 512V219.456c0-40.256 32.896-73.152 73.152-73.152s73.152 32.896 73.152 73.152V512z" p-id="5951" fill="#D9001B"></path></svg>